<svg width="310" height="73" viewBox="0 0 310 73" fill="none" xmlns="http://www.w3.org/2000/svg">
<path d="M32.8557 20.861L22 35.0106H25.526L25.6954 50.7302C25.7196 52.994 26.846 55.1267 28.7539 56.3457C30.7771 57.6384 34.1218 58.5341 39.6289 57.6959V51.9174L36.2579 51.9742C36.2579 51.9742 32.8557 52.4073 32.4847 47.8608C32.1133 43.3146 32.8557 35.0106 32.8557 35.0106H38.4228V29.6753H33.1342L32.8557 20.861Z" fill="#4EAC7A"/>
<path d="M46.2167 29.2115V35.2198C46.2167 35.2198 51.3198 34.3445 54.2889 34.94C56.3672 35.3569 57.0815 36.2456 57.3232 36.7415C57.408 36.9155 57.4435 37.1087 57.4435 37.302V52.3293H52.9899C52.9899 52.3293 48.9101 52.5688 48.5363 48.1843C48.1189 43.2857 54.5673 43.622 54.5673 43.622V39.7958C54.5673 39.7958 42.4126 38.4842 42.4126 49.376C42.4126 61.4543 64.3096 57.35 64.3096 57.35V34.94C64.3096 34.94 63.5671 29.2115 55.6805 29.2115H46.2167Z" fill="#4EAC7A"/>
<path d="M85.0465 30.1152V35.8875C85.0465 35.8875 75.892 32.9047 75.3968 37.0694C74.9486 40.8416 82.2629 41.0337 85.0002 44.0789C87.7371 47.1241 87.2268 54.4468 82.3092 56.5374C77.392 58.6283 69.1339 57.5677 69.1339 57.5677V51.4318C69.1339 51.4318 74.8403 53.0226 77.8556 51.8863C77.8556 51.8863 80.6392 50.8864 79.526 47.9777C78.4126 45.0686 69.2269 44.9322 68.2526 39.3546C67.1847 33.2404 70.2941 26.7972 85.0465 30.1152Z" fill="#4EAC7A"/>
<path d="M96.227 57.6868H88.9436V18.5926H96.227V57.6868Z" fill="#4EAC7A"/>
<path d="M103.943 42.6794L110.021 29.1401H102.794L96.7163 42.6794L105.216 57.6868H112.443L103.943 42.6794Z" fill="#4EAC7A"/>
<path d="M137.33 23.5569V17.1292C123.551 15.7373 124.062 26.062 124.062 26.062V29.5414H119.84V35.0622H124.062V57.562H131.253V35.0622H136.541V29.5414H131.253V26.062C132.181 21.7014 137.33 23.5569 137.33 23.5569Z" fill="#313332"/>
<path d="M151.111 50.8574C147.203 50.8574 144.035 47.6997 144.035 43.8047C144.035 39.9098 147.203 36.7521 151.111 36.7521C155.019 36.7521 158.188 39.9098 158.188 43.8047C158.188 47.6997 155.019 50.8574 151.111 50.8574ZM151.111 29.5875C143.232 29.5875 136.845 35.9528 136.845 43.8047C136.845 51.6567 143.232 58.022 151.111 58.022C158.99 58.022 165.377 51.6567 165.377 43.8047C165.377 35.9528 158.99 29.5875 151.111 29.5875Z" fill="#313332"/>
<path d="M176.485 34.3709V29.7371H168.459V57.562H176.485V41.378C180.103 34.2573 187.247 37.0924 187.247 37.0924V29.7371C181.085 28.8137 177.799 32.3972 176.485 34.3709Z" fill="#313332"/>
<path d="M206.45 49.1146C205.166 50.1965 203.491 50.8569 201.652 50.8569C197.617 50.8569 194.346 47.6991 194.346 43.8035C194.346 39.9078 197.617 36.7501 201.652 36.7501C203.539 36.7501 205.254 37.4462 206.55 38.5797L211.613 33.3311C208.991 31.0055 205.494 29.5845 201.652 29.5845C193.518 29.5845 186.923 35.9505 186.923 43.8035C186.923 51.6565 193.518 58.0225 201.652 58.0225C205.424 58.0225 208.864 56.6519 211.47 54.4007L206.45 49.1146Z" fill="#313332"/>
<path d="M225.147 35.4939C228.521 35.4939 229.936 37.6879 230.396 40.8092H219.406C220.035 37.7051 221.801 35.4939 225.147 35.4939ZM230.19 47.5448C229.572 50.1404 228.122 51.9332 225.147 51.9332C221.801 51.9332 220.035 49.722 219.406 46.6179H225.647H228.863H230.374H238.397C238.582 45.6801 238.68 44.709 238.68 43.7137C238.68 35.8608 232.621 29.4948 225.147 29.4948C217.672 29.4948 211.613 35.8608 211.613 43.7137C211.613 51.5664 217.672 57.9324 225.147 57.9324C229.605 57.9324 233.559 55.6668 236.025 52.1727L230.19 47.5448Z" fill="#313332"/>
<path d="M244.449 48.797C244.449 48.797 240.102 53.865 240.1 53.8675C239.973 54.0162 245.737 56.4602 246.111 56.5658C249.923 57.641 254.542 57.6842 258.054 55.6357C262.634 52.9647 263.681 46.7958 258.933 43.7496C255.992 41.8628 252.394 41.6292 249.274 40.1538C248.117 39.6067 247.655 38.1015 248.22 36.9326C248.922 35.4782 250.932 35.3225 252.344 35.5771C253.999 35.8763 255.538 36.8025 256.743 37.9146L261.15 33.4361C261.15 33.4361 256.43 30.0405 250.712 30.3067C247.703 30.447 244.47 31.6338 242.543 34.041C240.647 36.409 240.436 39.9508 242.133 42.4843C244.004 45.2769 247.828 45.9078 250.845 46.6878C251.969 46.9786 254.057 47.3755 254.284 48.797C254.84 52.29 248.067 52.3798 244.449 48.797Z" fill="#313332"/>
<path d="M292 33.2009H261.886V17.8916H292V33.2009Z" fill="#4EAC7A"/>
<path d="M270.564 30.9871H264.603V20.5027H270.564V22.0742H266.482V24.7466H270.3V26.3178H266.482V29.4015H270.564V30.9871Z" fill="white"/>
<path d="M275.66 22.0742H274.676V25.3046H275.718C276.491 25.3046 277.052 25.165 277.4 24.8858C277.747 24.607 277.921 24.1936 277.921 23.6451C277.921 23.2635 277.838 22.9577 277.672 22.7276C277.505 22.4979 277.257 22.3313 276.93 22.2286C276.602 22.1254 276.179 22.0742 275.66 22.0742ZM275.777 20.5027C276.697 20.5027 277.456 20.6153 278.053 20.8408C278.65 21.066 279.096 21.4061 279.389 21.8614C279.683 22.3166 279.83 22.8914 279.83 23.5865C279.83 24.0957 279.735 24.5316 279.543 24.8936C279.353 25.2555 279.105 25.5567 278.802 25.7963C278.499 26.0365 278.171 26.2297 277.818 26.3763L280.829 30.9871H278.714L276.203 26.8463H274.676V30.9871H272.796V20.5027H275.777Z" fill="white"/>
<path d="M285.292 22.0595H284.161V25.5687H285.013C285.522 25.5687 285.955 25.5076 286.313 25.3849C286.67 25.2629 286.941 25.0693 287.128 24.8055C287.314 24.5408 287.406 24.1981 287.406 23.7773C287.406 23.2 287.235 22.7693 286.893 22.4853C286.55 22.2015 286.016 22.0595 285.292 22.0595ZM285.41 20.5027C286.77 20.5027 287.761 20.7868 288.383 21.3546C289.005 21.9224 289.315 22.7055 289.315 23.704C289.315 24.1543 289.247 24.5825 289.11 24.989C288.973 25.3951 288.743 25.7598 288.42 26.0825C288.097 26.4058 287.673 26.6601 287.15 26.8463C286.626 27.0322 285.977 27.1254 285.204 27.1254H284.161V30.9871H282.282V20.5027H285.41Z" fill="white"/>
</svg>
