<svg id="svg" xmlns="http://www.w3.org/2000/svg" xmlns:xlink="http://www.w3.org/1999/xlink" width="400" height="399.21875" viewBox="0, 0, 400,399.21875"><g id="svgg"><path id="path0" d="M25.919 8.648 C 16.301 10.541,7.906 17.135,3.333 26.388 L 0.391 32.341 0.189 163.389 C -0.013 294.365,-0.013 294.439,1.608 298.771 C 5.062 308.001,12.074 315.332,20.825 318.862 L 25.391 320.703 77.539 320.930 L 129.688 321.156 129.685 322.883 C 129.683 324.553,123.924 368.164,123.044 373.181 L 122.609 375.658 112.556 375.915 C 101.356 376.201,100.056 376.736,98.405 381.740 C 97.330 384.997,99.276 389.668,102.344 391.193 C 105.021 392.524,294.525 392.643,297.122 391.315 C 303.079 388.268,303.079 379.700,297.122 376.654 C 296.149 376.157,291.440 375.781,286.171 375.781 L 276.927 375.781 273.552 350.195 C 271.695 336.123,269.996 323.832,269.777 322.883 L 269.378 321.156 321.993 320.930 L 374.609 320.703 379.175 318.862 C 387.926 315.332,394.938 308.001,398.392 298.771 C 400.013 294.439,400.013 294.365,399.811 163.389 L 399.609 32.341 396.667 26.388 C 391.949 16.842,383.741 10.548,373.469 8.600 C 368.319 7.623,30.889 7.670,25.919 8.648 M141.117 25.977 C 140.858 26.943,140.642 29.005,140.636 30.558 C 140.626 33.171,140.369 33.479,137.192 34.693 L 133.758 36.004 129.375 32.933 C 119.377 25.930,106.236 27.190,97.715 35.970 L 94.714 39.063 70.599 39.067 C 40.688 39.072,37.541 39.899,33.488 48.821 C 31.279 53.684,31.279 228.347,33.488 233.210 C 37.044 241.036,41.885 242.958,58.059 242.964 C 72.714 242.970,75.747 241.564,75.747 234.766 C 75.747 228.092,72.630 226.562,59.036 226.563 L 48.438 226.563 48.438 141.016 L 48.438 55.469 69.727 55.470 L 91.016 55.471 92.336 59.962 C 93.092 62.537,94.816 65.809,96.376 67.631 L 99.096 70.808 97.684 73.962 C 96.261 77.141,94.661 78.084,90.625 78.122 C 76.970 78.250,66.534 98.102,72.858 111.917 C 76.114 119.029,84.698 125.729,90.625 125.784 C 94.661 125.822,96.261 126.765,97.684 129.945 L 99.096 133.098 96.449 136.190 C 78.597 157.046,106.769 186.808,129.375 170.973 L 133.758 167.902 137.192 169.214 C 140.422 170.447,140.625 170.701,140.625 173.514 C 140.625 202.206,184.924 203.026,188.721 174.404 C 189.387 169.380,191.253 168.369,194.409 171.319 C 197.078 173.814,200.462 175.504,204.191 176.204 C 207.598 176.843,208.546 178.363,206.765 180.331 C 204.496 182.839,202.935 187.830,202.935 192.578 C 202.935 208.722,219.981 217.761,233.749 208.918 C 236.988 206.838,239.045 207.714,239.080 211.189 C 239.125 215.645,244.193 222.422,249.609 225.268 C 251.762 226.399,246.924 226.502,190.391 226.531 C 137.051 226.558,128.524 226.720,126.547 227.742 C 120.993 230.615,120.993 238.917,126.547 241.789 C 130.678 243.925,353.051 243.500,357.798 241.346 C 362.525 239.202,363.961 237.797,366.119 233.203 L 367.953 229.297 367.944 141.016 C 367.933 37.962,368.700 45.843,358.203 40.913 L 354.297 39.078 294.499 39.070 L 234.700 39.063 231.295 35.592 C 222.651 26.785,206.688 26.085,198.272 34.144 L 196.153 36.173 192.608 34.819 C 189.623 33.679,189.063 33.134,189.063 31.376 C 189.063 30.227,188.735 28.146,188.336 26.753 L 187.609 24.219 278.284 24.219 C 376.462 24.219,372.699 24.053,378.039 28.623 C 384.476 34.133,383.958 24.095,384.195 147.852 L 384.406 257.813 200.000 257.813 L 15.594 257.813 15.805 147.852 L 16.016 37.891 17.683 34.285 C 19.486 30.386,23.472 26.733,27.530 25.262 C 29.396 24.585,45.010 24.322,85.833 24.278 L 141.588 24.219 141.117 25.977 M170.275 26.952 C 171.924 28.600,172.253 29.820,172.638 35.722 C 173.186 44.110,173.959 45.587,178.702 47.307 C 180.748 48.048,185.519 50.048,189.304 51.750 C 197.962 55.642,200.057 55.419,205.798 49.989 C 210.965 45.102,213.283 44.185,216.773 45.643 C 223.422 48.421,223.443 54.036,216.832 60.968 C 214.449 63.465,212.461 66.150,212.414 66.934 C 212.221 70.109,212.745 72.413,214.425 75.770 C 215.395 77.710,216.960 81.641,217.903 84.506 C 220.494 92.384,221.970 93.489,230.447 93.894 C 238.607 94.284,241.065 95.615,239.795 98.956 C 239.392 100.016,239.063 101.722,239.063 102.746 C 239.063 105.743,236.876 106.367,233.646 104.295 C 223.017 97.476,208.969 101.582,204.241 112.891 C 201.756 118.836,203.009 128.800,206.765 132.950 C 208.545 134.916,207.598 136.438,204.200 137.076 C 197.420 138.348,190.778 143.965,188.988 149.940 C 188.129 152.808,187.634 153.252,183.669 154.701 C 175.762 157.592,174.950 158.010,174.013 159.677 C 173.503 160.585,172.886 164.393,172.641 168.138 C 171.582 184.348,157.539 184.058,156.864 167.813 C 156.526 159.671,155.317 158.136,146.797 155.028 C 143.188 153.711,138.754 151.865,136.945 150.926 C 131.545 148.123,128.626 148.900,123.096 154.611 C 117.999 159.875,113.403 160.393,109.450 156.151 C 106.476 152.958,107.197 149.001,111.611 144.289 C 118.201 137.255,118.484 135.567,114.567 126.661 C 113.126 123.384,111.356 119.076,110.633 117.088 C 108.613 111.530,107.174 110.639,99.318 110.084 C 90.362 109.450,87.305 107.381,87.305 101.953 C 87.305 96.525,90.362 94.456,99.318 93.823 C 107.174 93.267,108.613 92.376,110.633 86.818 C 111.356 84.830,113.126 80.522,114.567 77.245 C 118.484 68.339,118.201 66.651,111.611 59.617 C 107.197 54.906,106.476 50.948,109.450 47.756 C 113.403 43.513,117.999 44.032,123.096 49.295 C 128.626 55.007,131.545 55.783,136.945 52.980 C 138.754 52.041,143.188 50.195,146.797 48.878 C 155.193 45.816,156.494 44.214,156.859 36.498 C 157.390 25.254,163.924 20.605,170.275 26.952 M351.563 141.016 L 351.563 226.563 308.008 226.532 C 271.400 226.506,264.827 226.338,266.797 225.477 C 272.525 222.975,278.098 215.378,278.117 210.045 C 278.128 207.138,279.999 206.759,283.297 208.997 C 300.346 220.568,321.348 201.508,311.719 183.203 C 309.014 178.062,308.807 176.563,310.798 176.563 C 323.387 176.563,332.764 160.562,327.282 148.438 C 324.425 142.119,316.880 136.719,310.908 136.719 C 308.840 136.719,308.982 135.579,311.729 130.163 C 321.155 111.576,300.395 92.680,283.297 104.284 C 279.999 106.522,278.128 106.144,278.117 103.237 C 278.084 94.246,266.830 85.070,257.171 86.159 C 253.858 86.532,253.314 86.331,250.165 83.558 C 246.739 80.543,242.236 78.661,236.231 77.736 C 233.367 77.295,232.872 76.892,231.782 74.117 L 230.555 70.994 233.239 67.478 C 234.715 65.544,236.479 62.051,237.158 59.715 L 238.392 55.469 294.977 55.469 L 351.563 55.469 351.563 141.016 M153.694 74.511 C 123.001 87.379,132.791 132.353,166.016 131.120 C 196.550 129.987,205.047 88.761,177.531 75.249 C 171.081 72.082,160.286 71.748,153.694 74.511 M171.001 90.667 C 183.301 97.580,177.646 115.840,163.567 114.672 C 152.187 113.728,147.495 99.713,155.988 92.033 C 159.626 88.743,166.470 88.120,171.001 90.667 M260.781 103.281 C 261.297 103.797,261.719 105.918,261.719 107.994 C 261.719 113.306,263.422 116.931,266.558 118.294 C 267.979 118.912,271.553 120.497,274.502 121.818 C 282.505 125.402,285.191 125.052,290.797 119.694 C 296.706 114.046,300.175 119.359,294.558 125.452 C 289.558 130.876,289.561 131.839,294.614 144.044 C 297.694 151.481,299.798 153.118,306.289 153.122 C 310.925 153.125,312.500 154.018,312.500 156.641 C 312.500 159.264,310.925 160.156,306.289 160.159 C 299.798 160.164,297.694 161.800,294.614 169.237 C 289.561 181.443,289.558 182.405,294.558 187.829 C 300.175 193.922,296.706 199.235,290.797 193.588 C 285.191 188.229,282.505 187.879,274.502 191.463 C 271.553 192.784,267.979 194.369,266.558 194.987 C 263.422 196.351,261.719 199.975,261.719 205.287 C 261.719 209.252,260.753 210.938,258.482 210.938 C 256.236 210.938,254.688 207.826,254.688 203.314 C 254.688 197.921,253.191 195.746,248.172 193.847 C 245.955 193.008,242.559 191.596,240.625 190.709 C 234.791 188.033,231.820 188.466,227.354 192.644 C 223.288 196.447,221.590 196.759,219.784 194.035 C 218.765 192.497,218.931 192.073,221.906 188.636 C 227.288 182.418,227.310 181.552,222.398 169.549 C 219.210 161.761,217.916 160.687,211.077 160.156 C 201.852 159.441,201.592 153.129,210.786 153.121 C 217.393 153.115,219.152 151.695,222.397 143.750 C 227.310 131.718,227.288 130.863,221.906 124.645 C 218.931 121.208,218.765 120.784,219.784 119.247 C 221.546 116.587,223.022 116.865,227.295 120.660 C 231.960 124.803,234.856 125.218,240.625 122.572 C 242.559 121.685,245.955 120.273,248.172 119.434 C 253.191 117.535,254.688 115.360,254.688 109.967 C 254.688 103.861,257.870 100.370,260.781 103.281 M251.953 133.858 C 225.624 142.583,231.010 180.046,258.594 180.046 C 283.992 180.046,291.298 145.222,268.056 134.942 C 263.672 133.002,256.078 132.491,251.953 133.858 M261.734 150.399 C 267.105 153.176,267.052 160.133,261.639 162.932 C 256.899 165.383,251.406 162.013,251.406 156.655 C 251.406 151.049,256.742 147.817,261.734 150.399 M95.398 227.653 C 90.888 230.153,89.992 236.987,93.690 240.685 C 100.354 247.349,111.285 238.636,106.287 230.645 C 103.860 226.765,99.274 225.504,95.398 227.653 M384.184 282.617 C 383.561 295.284,380.058 301.362,371.986 303.781 C 367.633 305.085,32.367 305.085,28.014 303.781 C 19.942 301.362,16.439 295.284,15.816 282.617 L 15.404 274.219 200.000 274.219 L 384.596 274.219 384.184 282.617 M194.366 283.514 C 187.574 289.583,195.030 300.458,203.295 296.537 C 210.929 292.914,208.470 281.250,200.072 281.250 C 197.676 281.250,196.280 281.804,194.366 283.514 M253.130 321.680 C 253.132 322.002,254.713 333.867,256.644 348.047 C 258.574 362.227,260.154 374.268,260.155 374.805 C 260.156 375.578,247.557 375.781,199.758 375.781 L 139.359 375.781 143.068 348.633 C 145.107 333.701,146.798 321.396,146.825 321.289 C 146.955 320.779,253.126 321.169,253.130 321.680 " stroke="none" fill="#000000" fill-rule="evenodd"></path></g></svg>